<svg id="visual" viewBox="0 0 960 540" width="960" height="540" xmlns="http://www.w3.org/2000/svg" xmlns:xlink="http://www.w3.org/1999/xlink" version="1.1"><rect x="0" y="0" width="960" height="540" fill="#323232"></rect><path d="M0 325L26.7 327.5C53.3 330 106.7 335 160 315.8C213.3 296.7 266.7 253.3 320 228.3C373.3 203.3 426.7 196.7 480 212.3C533.3 228 586.7 266 640 289.8C693.3 313.7 746.7 323.3 800 308.8C853.3 294.3 906.7 255.7 933.3 236.3L960 217L960 541L933.3 541C906.7 541 853.3 541 800 541C746.7 541 693.3 541 640 541C586.7 541 533.3 541 480 541C426.7 541 373.3 541 320 541C266.7 541 213.3 541 160 541C106.7 541 53.3 541 26.7 541L0 541Z" fill="#191919" stroke-linecap="round" stroke-linejoin="miter"></path></svg>